<mxfile host="app.diagrams.net" modified="2021-09-29T10:25:41.251Z" agent="5.0 (Windows NT 10.0; Win64; x64) AppleWebKit/537.36 (KHTML, like Gecko) Chrome/94.0.4606.61 Safari/537.36" etag="6pv6Vz8WRuTSZTCJ7-7J" version="15.2.9" type="github">
  <diagram id="KK4vCECrZg8_5cVPXEZE" name="Page-1">
    <mxGraphModel dx="3076" dy="762" grid="1" gridSize="10" guides="1" tooltips="1" connect="1" arrows="1" fold="1" page="1" pageScale="1" pageWidth="1654" pageHeight="2336" math="0" shadow="0">
      <root>
        <mxCell id="0" />
        <mxCell id="1" parent="0" />
        <mxCell id="kdUZMOeOivJX-Wsksw9c-1" value="Actor" style="shape=umlActor;verticalLabelPosition=bottom;verticalAlign=top;html=1;outlineConnect=0;" vertex="1" parent="1">
          <mxGeometry x="-10" y="95" width="30" height="60" as="geometry" />
        </mxCell>
        <mxCell id="kdUZMOeOivJX-Wsksw9c-2" value="Датчик температуры" style="rounded=0;whiteSpace=wrap;html=1;" vertex="1" parent="1">
          <mxGeometry x="160" y="95" width="80" height="50" as="geometry" />
        </mxCell>
        <mxCell id="kdUZMOeOivJX-Wsksw9c-3" value="Преобразователь" style="rounded=0;whiteSpace=wrap;html=1;" vertex="1" parent="1">
          <mxGeometry x="270" y="90" width="100" height="60" as="geometry" />
        </mxCell>
        <mxCell id="kdUZMOeOivJX-Wsksw9c-4" value="Блок питания" style="rounded=0;whiteSpace=wrap;html=1;" vertex="1" parent="1">
          <mxGeometry x="400" y="100" width="80" height="50" as="geometry" />
        </mxCell>
        <mxCell id="kdUZMOeOivJX-Wsksw9c-5" value="Контроллер wiren board 6" style="rounded=0;whiteSpace=wrap;html=1;" vertex="1" parent="1">
          <mxGeometry x="510" y="100" width="80" height="50" as="geometry" />
        </mxCell>
        <mxCell id="kdUZMOeOivJX-Wsksw9c-6" value="&lt;span style=&quot;font-size: 11pt ; line-height: 107% ; font-family: &amp;#34;times new roman&amp;#34; , serif&quot;&gt;Модуль ввода-вывода&lt;/span&gt;" style="rounded=0;whiteSpace=wrap;html=1;" vertex="1" parent="1">
          <mxGeometry x="620" y="100" width="80" height="50" as="geometry" />
        </mxCell>
        <mxCell id="kdUZMOeOivJX-Wsksw9c-7" value="Индикатор кнопки 2" style="rounded=0;whiteSpace=wrap;html=1;" vertex="1" parent="1">
          <mxGeometry x="730" y="100" width="80" height="50" as="geometry" />
        </mxCell>
        <mxCell id="kdUZMOeOivJX-Wsksw9c-8" value="Индикатор 2" style="rounded=0;whiteSpace=wrap;html=1;" vertex="1" parent="1">
          <mxGeometry x="840" y="100" width="80" height="50" as="geometry" />
        </mxCell>
        <mxCell id="kdUZMOeOivJX-Wsksw9c-9" value="&lt;span style=&quot;font-size: 11pt ; line-height: 107% ; font-family: &amp;#34;times new roman&amp;#34; , serif&quot;&gt;Электросчетчик &quot;Милур 307&quot;&lt;/span&gt;" style="rounded=0;whiteSpace=wrap;html=1;" vertex="1" parent="1">
          <mxGeometry x="950" y="100" width="110" height="50" as="geometry" />
        </mxCell>
        <mxCell id="kdUZMOeOivJX-Wsksw9c-10" value="&lt;span style=&quot;font-size: 11pt ; line-height: 107% ; font-family: &amp;#34;times new roman&amp;#34; , serif&quot;&gt;Автомат питания вентилятора (L2)&lt;/span&gt;" style="rounded=0;whiteSpace=wrap;html=1;" vertex="1" parent="1">
          <mxGeometry x="1090" y="90" width="120" height="60" as="geometry" />
        </mxCell>
        <mxCell id="kdUZMOeOivJX-Wsksw9c-11" value="&lt;span style=&quot;font-size: 11pt ; line-height: 107% ; font-family: &amp;#34;times new roman&amp;#34; , serif&quot;&gt;Трансформатор тока 25 А (L2)&lt;/span&gt;" style="rounded=0;whiteSpace=wrap;html=1;" vertex="1" parent="1">
          <mxGeometry x="1240" y="90" width="110" height="60" as="geometry" />
        </mxCell>
        <mxCell id="kdUZMOeOivJX-Wsksw9c-12" value="&lt;span style=&quot;font-size: 11pt ; line-height: 107% ; font-family: &amp;#34;times new roman&amp;#34; , serif&quot;&gt;Модуль реле 3-канальный WB-MR3&lt;/span&gt;" style="rounded=0;whiteSpace=wrap;html=1;" vertex="1" parent="1">
          <mxGeometry x="1380" y="90" width="120" height="60" as="geometry" />
        </mxCell>
        <mxCell id="kdUZMOeOivJX-Wsksw9c-13" value="&lt;span style=&quot;font-size: 11pt ; line-height: 107% ; font-family: &amp;#34;times new roman&amp;#34; , serif&quot;&gt;Вентилятор&lt;/span&gt;" style="rounded=0;whiteSpace=wrap;html=1;" vertex="1" parent="1">
          <mxGeometry x="1530" y="90" width="120" height="60" as="geometry" />
        </mxCell>
        <mxCell id="kdUZMOeOivJX-Wsksw9c-14" value="Веб-интерфейс" style="rounded=0;whiteSpace=wrap;html=1;" vertex="1" parent="1">
          <mxGeometry x="60" y="90" width="80" height="55" as="geometry" />
        </mxCell>
      </root>
    </mxGraphModel>
  </diagram>
</mxfile>
